<svg width="20" height="20" viewBox="0 0 20 20" fill="none" xmlns="http://www.w3.org/2000/svg">
<path d="M10 14.218L9.29289 13.5109L3.11388 7.33185C3.06718 7.28864 3.00569 7.26482 2.94194 7.26537C2.87639 7.26594 2.81368 7.29223 2.76733 7.33858C2.72098 7.38493 2.69469 7.44764 2.69412 7.51319C2.69357 7.57694 2.71739 7.63842 2.76059 7.68512L9.82325 14.7478C9.82329 14.7478 9.82332 14.7479 9.82336 14.7479C9.87023 14.7947 9.93376 14.821 10 14.821C10.0662 14.821 10.1298 14.7947 10.1766 14.7479L10.1768 14.7478M10 14.218L10.1768 14.7478M10 14.218L10.7071 13.5109L16.8945 7.32346C16.8945 7.32343 16.8946 7.32339 16.8946 7.32336C16.9415 7.27656 17.005 7.25027 17.0713 7.25027C17.1375 7.25027 17.2011 7.2766 17.248 7.32346C17.2947 7.37033 17.321 7.43381 17.321 7.5C17.321 7.56624 17.2947 7.62977 17.2479 7.67664C17.2479 7.67668 17.2478 7.67671 17.2478 7.67675L10.1768 14.7478M10 14.218L10.1768 14.7478" fill="#989898" stroke="#989898" stroke-width="2"/>
</svg>
