<svg width="13" height="13" viewBox="0 0 13 13" fill="none" xmlns="http://www.w3.org/2000/svg">
<path fill-rule="evenodd" clip-rule="evenodd" d="M6.5074 8.24984L10.8853 12.6228C11.1177 12.8548 11.4327 12.9852 11.7613 12.9852C12.0898 12.9852 12.4049 12.8548 12.6372 12.6228C12.8695 12.3907 13 12.076 13 11.7479C13 11.4197 12.8695 11.105 12.6372 10.873L8.25759 6.5L12.6364 2.12705C12.7513 2.01215 12.8425 1.87576 12.9047 1.72566C12.9669 1.57557 12.9989 1.4147 12.9989 1.25225C12.9988 1.0898 12.9668 0.928949 12.9045 0.77888C12.8422 0.628811 12.751 0.492463 12.6359 0.377621C12.5209 0.262779 12.3844 0.171692 12.2341 0.109561C12.0838 0.0474296 11.9228 0.0154706 11.7601 0.0155089C11.5975 0.0155472 11.4365 0.0475818 11.2862 0.109784C11.136 0.171986 10.9995 0.263137 10.8845 0.378034L6.5074 4.75098L2.12946 0.378034C2.01528 0.259842 1.87868 0.165547 1.72763 0.10065C1.57658 0.0357541 1.4141 0.00155596 1.24968 5.18716e-05C1.08525 -0.00145222 0.922177 0.0297676 0.769961 0.0918897C0.617745 0.154012 0.479439 0.245792 0.363114 0.361875C0.246789 0.477959 0.154773 0.61602 0.0924367 0.768004C0.0301002 0.919988 -0.00130897 1.08285 4.17871e-05 1.24709C0.00139255 1.41133 0.0354761 1.57365 0.100304 1.72459C0.165132 1.87553 0.259406 2.01207 0.377625 2.12622L4.75722 6.5L0.37845 10.8738C0.260232 10.9879 0.165958 11.1245 0.10113 11.2754C0.036302 11.4263 0.00221805 11.5887 0.000867287 11.7529C-0.000483475 11.9171 0.0309257 12.08 0.0932622 12.232C0.155599 12.384 0.247614 12.522 0.363939 12.6381C0.480265 12.7542 0.61857 12.846 0.770786 12.9081C0.923002 12.9702 1.08608 13.0015 1.2505 12.9999C1.41493 12.9984 1.57741 12.9642 1.72846 12.8993C1.87951 12.8345 2.01611 12.7402 2.13029 12.622L6.5074 8.24984Z" fill="#FF0000"/>
</svg>
